<?xml version="1.0" encoding="UTF-8" standalone="no"?>
<!DOCTYPE svg PUBLIC "-//W3C//DTD SVG 1.1//EN" "http://www.w3.org/Graphics/SVG/1.1/DTD/svg11.dtd">
<svg width="100%" height="100%" viewBox="0 0 267 267" version="1.1" xmlns="http://www.w3.org/2000/svg" xmlns:xlink="http://www.w3.org/1999/xlink" xml:space="preserve" style="fill-rule:evenodd;clip-rule:evenodd;stroke-linejoin:round;stroke-miterlimit:1.41421;">
    <g id="Blue_1_" transform="matrix(0.484636,0,0,0.484636,2.36449,2.36449)">
        <path d="M248.082,262.307C255.936,262.307 262.305,255.938 262.305,248.082L262.305,18.812C262.305,10.955 255.937,4.588 248.082,4.588L18.812,4.588C10.955,4.588 4.588,10.955 4.588,18.812L4.588,248.082C4.588,255.937 10.954,262.307 18.812,262.307L248.082,262.307Z" style="fill:white;fill-rule:nonzero;"/>
    </g>
    <g id="f" transform="matrix(0.484636,0,0,0.484636,2.36449,2.36449)">
        <path d="M182.409,262.307L182.409,162.504L215.908,162.504L220.924,123.609L182.409,123.609L182.409,98.777C182.409,87.516 185.536,79.842 201.684,79.842L222.28,79.833L222.28,45.045C218.718,44.571 206.492,43.512 192.268,43.512C162.573,43.512 142.243,61.638 142.243,94.925L142.243,123.609L108.658,123.609L108.658,162.504L142.243,162.504L142.243,262.307L182.409,262.307Z" style="fill-rule:nonzero;"/>
    </g>
    <g transform="matrix(2.84463,0,0,2.84463,198.733,67.118)">
        <g transform="matrix(1,0,0,1,-24,-24)">
            <path d="M43.2,33.9C42.8,36 41.1,37.6 39,37.9C35.7,38.4 30.2,39 24,39C17.9,39 12.4,38.4 9,37.9C6.9,37.6 5.2,36 4.8,33.9C4.4,31.6 4,28.2 4,24C4,19.8 4.4,16.4 4.8,14.1C5.2,12 6.9,10.4 9,10.1C12.3,9.6 17.8,9 24,9C30.2,9 35.6,9.6 39,10.1C41.1,10.4 42.8,12 43.2,14.1C43.6,16.4 44.1,19.8 44.1,24C44,28.2 43.6,31.6 43.2,33.9Z" style="fill:white;fill-rule:nonzero;"/>
            <path d="M20,31L20,17L32,24L20,31Z" style="fill-rule:nonzero;"/>
        </g>
    </g>
    <g transform="matrix(0.426958,0,0,0.426958,69.897,197.606)">
        <g transform="matrix(1,0,0,1,-150,-122.094)">
            <g transform="matrix(1,0,0,1,-539.18,-568.86)">
                <path d="M633.9,812.04C746.36,812.04 807.86,718.872 807.86,638.08C807.86,635.434 807.806,632.799 807.687,630.177C819.625,621.547 830.001,610.777 838.185,598.517C827.23,603.386 815.441,606.664 803.074,608.142C815.697,600.573 825.388,588.599 829.96,574.325C818.147,581.329 805.065,586.418 791.136,589.166C779.979,577.282 764.095,569.849 746.507,569.849C712.743,569.849 685.363,597.23 685.363,630.981C685.363,635.779 685.9,640.446 686.949,644.922C636.134,642.366 591.075,618.036 560.919,581.042C555.668,590.078 552.64,600.573 552.64,611.772C552.64,632.984 563.434,651.71 579.848,662.665C569.817,662.356 560.394,659.602 552.158,655.019C552.149,655.275 552.149,655.525 552.149,655.799C552.149,685.409 573.224,710.131 601.2,715.733C596.063,717.134 590.657,717.885 585.078,717.885C581.145,717.885 577.312,717.498 573.587,716.782C581.371,741.075 603.942,758.753 630.702,759.247C609.776,775.649 583.415,785.418 554.765,785.418C549.836,785.418 544.967,785.138 540.181,784.572C567.24,801.916 599.37,812.036 633.903,812.036" style="fill:white;fill-rule:nonzero;"/>
            </g>
        </g>
    </g>
    <g transform="matrix(1.92902,0,0,1.92902,199.458,198.782)">
        <g transform="matrix(1,0,0,1,-32,-32)">
            <clipPath id="_clip1">
                <rect x="0" y="0" width="64" height="64"/>
            </clipPath>
            <g clip-path="url(#_clip1)">
                <g>
                    <circle id="circle_x5F_bg_3_" cx="32" cy="32" r="32" style="fill:white;"/>
                    <g>
                        <path d="M49,22.3C49,20 47.1,18.1 44.9,18.1C43.9,18.1 43,18.4 42.3,19C39.8,17.4 36.8,16.5 33.4,16.3L35.1,10.7L39.8,11.8C40,13.6 41.4,15 43.2,15C45.1,15 46.7,13.4 46.7,11.5C46.7,9.5 45.1,8 43.2,8C41.9,8 40.7,8.8 40.2,9.9L34.6,8.6C34.1,8.5 33.6,8.8 33.4,9.3L31.2,16.3C27.5,16.4 24.1,17.4 21.6,19C20.9,18.4 20,18.1 19.1,18.1C16.8,18.1 15,20 15,22.3C15,23.7 15.7,25 16.8,25.7C16.8,26 16.7,26.4 16.7,26.7C16.7,30.4 19.5,33.7 23.8,35.6C21.8,36.9 20.6,39.3 20.6,42.1C20.6,45.5 22.5,48.3 25.1,49.2C25.2,49.6 25.4,50 25.5,50.4C23.1,50.5 21.2,52.2 21.2,54.3C21.2,54.6 21.3,55 21.4,55.3C21.5,55.7 21.9,56 22.4,56L41.6,56C42,56 42.4,55.7 42.6,55.3C42.7,54.9 42.8,54.6 42.8,54.3C42.8,52.2 40.9,50.5 38.5,50.4C38.7,50 38.8,49.6 38.9,49.2C41.6,48.4 43.5,45.5 43.5,42.1C43.5,39.3 42.2,36.9 40.2,35.6C44.4,33.7 47.2,30.5 47.2,26.8C47.2,26.5 47.2,26.2 47.1,25.9C48.3,25.1 49,23.8 49,22.3ZM43.3,10C44.1,10 44.8,10.7 44.8,11.5C44.8,12.3 44.1,13 43.3,13C42.5,13 41.8,12.3 41.8,11.5C41.8,10.7 42.5,10 43.3,10ZM17,22.3C17,21.1 18,20.1 19.1,20.1C19.4,20.1 19.7,20.2 19.9,20.3C18.8,21.3 17.9,22.4 17.3,23.6C17.1,23.2 17,22.8 17,22.3ZM27.5,54L23.2,54C23.4,53.1 24.5,52.3 25.7,52.3C25.9,52.3 26.2,52.3 26.4,52.4C26.8,53 27.2,53.5 27.5,54ZM37.8,36.4C38,37.7 38.1,39 38.1,40.4C38.1,46.7 36.3,51.3 34.3,53.3C34.1,53.4 34,53.5 33.9,53.7C33.8,53.8 33.7,53.9 33.5,54L30.5,54C28.2,52.5 25.9,47.5 25.9,40.4C25.9,39 26,37.7 26.2,36.4C28,36.9 30,37.2 32,37.2C34,37.2 36,37 37.8,36.4ZM22.5,42.1C22.5,40.6 23,39.2 23.9,38.2C23.8,39 23.8,39.7 23.8,40.5C23.8,42.7 24,44.7 24.4,46.6C23.3,45.5 22.5,43.9 22.5,42.1ZM38.1,52.3C39.4,52.3 40.4,53 40.6,54L36.3,54C36.7,53.5 37,53 37.4,52.4C37.6,52.4 37.9,52.3 38.1,52.3ZM41.4,42.1C41.4,44 40.6,45.6 39.5,46.6C39.9,44.7 40.1,42.6 40.1,40.5C40.1,39.7 40.1,38.9 40,38.2C40.8,39.1 41.4,40.5 41.4,42.1ZM31.9,35.2C24.6,35.2 18.7,31.4 18.7,26.7C18.7,22 24.6,18.2 31.9,18.2C35.7,18.2 39.3,19.3 41.8,21.1C44,22.7 45.1,24.7 45.1,26.7C45.2,31.4 39.2,35.2 31.9,35.2ZM44,20.3C44.3,20.2 44.6,20.1 44.9,20.1C46.1,20.1 47,21.1 47,22.3C47,22.8 46.8,23.3 46.5,23.7C46,22.5 45.1,21.3 44,20.3Z" style="fill-rule:nonzero;"/>
                        <path d="M29.3,24.9C29.3,23.6 28.3,22.5 27,22.5C25.7,22.5 24.7,23.6 24.7,24.9C24.7,26.2 25.8,27.2 27,27.2C28.2,27.2 29.3,26.2 29.3,24.9Z" style="fill-rule:nonzero;"/>
                        <path d="M37,22.5C35.7,22.5 34.7,23.6 34.7,24.9C34.7,26.2 35.8,27.2 37,27.2C38.3,27.2 39.3,26.2 39.3,24.9C39.3,23.6 38.3,22.5 37,22.5Z" style="fill-rule:nonzero;"/>
                        <path d="M36.2,30.4C35.4,31.2 34,31.6 32,31.6C30,31.6 28.6,31.2 27.8,30.4C27.4,30 26.8,30 26.4,30.4C26,30.8 26,31.4 26.4,31.8C27.6,33 29.4,33.6 32,33.6C34.6,33.6 36.4,33 37.6,31.8C38,31.4 38,30.8 37.6,30.4C37.2,30 36.6,30 36.2,30.4Z" style="fill-rule:nonzero;"/>
                    </g>
                </g>
            </g>
        </g>
    </g>
</svg>
