<?xml version="1.0" encoding="UTF-8" standalone="no"?>
<svg
   xmlns:dc="http://purl.org/dc/elements/1.1/"
   xmlns:cc="http://creativecommons.org/ns#"
   xmlns:rdf="http://www.w3.org/1999/02/22-rdf-syntax-ns#"
   xmlns:svg="http://www.w3.org/2000/svg"
   xmlns="http://www.w3.org/2000/svg"
   xmlns:sodipodi="http://sodipodi.sourceforge.net/DTD/sodipodi-0.dtd"
   xmlns:inkscape="http://www.inkscape.org/namespaces/inkscape"
   width="100%"
   height="100%"
   viewBox="0 0 1005 330"
   version="1.1"
   xml:space="preserve"
   style="fill-rule:evenodd;clip-rule:evenodd;stroke-linejoin:round;stroke-miterlimit:1.41421;"
   id="svg18"
   sodipodi:docname="stanford_white.svg"
   inkscape:version="0.92.1 r"><metadata
     id="metadata24"><rdf:RDF><cc:Work
         rdf:about=""><dc:format>image/svg+xml</dc:format><dc:type
           rdf:resource="http://purl.org/dc/dcmitype/StillImage" /></cc:Work></rdf:RDF></metadata><defs
     id="defs22"><filter
       style="color-interpolation-filters:sRGB;"
       inkscape:label="Invert"
       id="filter529"><feColorMatrix
         type="hueRotate"
         values="180"
         result="color1"
         id="feColorMatrix525" /><feColorMatrix
         values="-1 0 0 0 1 0 -1 0 0 1 0 0 -1 0 1 -0.21 -0.72 -0.07 2 0 "
         result="color2"
         id="feColorMatrix527" /></filter><filter
       style="color-interpolation-filters:sRGB;"
       inkscape:label="Invert"
       id="filter535"><feColorMatrix
         type="hueRotate"
         values="180"
         result="color1"
         id="feColorMatrix531" /><feColorMatrix
         values="-1 0 0 0 1 0 -1 0 0 1 0 0 -1 0 1 -0.21 -0.72 -0.07 2 0 "
         result="color2"
         id="feColorMatrix533" /></filter></defs><sodipodi:namedview
     pagecolor="#ffffff"
     bordercolor="#666666"
     borderopacity="1"
     objecttolerance="10"
     gridtolerance="10"
     guidetolerance="10"
     inkscape:pageopacity="0"
     inkscape:pageshadow="2"
     inkscape:window-width="640"
     inkscape:window-height="480"
     id="namedview20"
     showgrid="false"
     inkscape:zoom="0.22092689"
     inkscape:cx="630.0761"
     inkscape:cy="58.87825"
     inkscape:window-x="488"
     inkscape:window-y="118"
     inkscape:window-maximized="0"
     inkscape:current-layer="svg18" /><path
     inkscape:connector-curvature="0"
     id="path2"
     style="fill:#000000;fill-rule:nonzero;filter:url(#filter529)"
     d="m 101.309,34.811 c -0.702,0.854 -2.518,2.652 -6.301,2.652 -3.594,0 -5.6,-1.281 -6.481,-4.16 -0.361,-1.142 -0.361,-3.386 -0.361,-4.736 0,-3.725 0.039,-6.705 0.078,-10.156 l 0.013,-1.623 h -3.069 v -0.912 c 1.248,-0.481 2.093,-0.981 2.915,-1.61 1.801,-1.394 2.951,-3.139 4.332,-5.592 h 1.023 v 5.225 h 7.9 v 2.889 h -7.9 v 12.215 c 0,3.654 0.663,5.732 4.114,5.732 1.609,0 2.672,-0.525 3.344,-0.875 z m 127.214,-0.662 c 1.588,0 2.666,-0.25 3.823,-0.939 V 17.626 c -0.379,-0.37 -1.789,-1.557 -4.641,-1.557 -4.529,0 -6.727,3.101 -6.727,9.482 0,2.674 0.801,8.598 7.545,8.598 z m 0.813,-32.326 c 1.406,0 3.236,-0.262 5.467,-0.653 1.265,-0.218 2.117,-0.451 2.527,-0.613 l 0.406,0.234 c -0.199,1.922 -0.201,6.247 -0.201,9.311 v 18.971 c 0,2.832 0.047,4.584 0.449,5.15 0.366,0.53 1.221,0.887 2.682,0.889 v 1.244 c -1.469,0 -3.203,0.189 -5,0.482 -1.193,0.196 -2.135,0.389 -2.582,0.635 l -0.637,-0.217 v -1.959 c -1.15,0.856 -3.447,2.188 -6.492,2.188 -6.389,0 -10.506,-4.432 -10.506,-11.287 0,-2.287 0.438,-4.45 1.242,-6.274 1.961,-4.222 6.01,-6.64 11.119,-6.64 1.868,0 3.538,0.234 4.536,0.447 V 8.782 c 0,-2.901 -0.043,-4.442 -0.463,-5.065 -0.324,-0.476 -0.801,-0.711 -2.547,-0.838 z m -32.734,12.84 c 1.58,0.088 3.294,-0.102 5.085,-0.418 1.383,-0.244 2.264,-0.545 2.76,-0.778 l 0.424,0.207 v 2.02 c 1.119,-1.051 2.877,-2.158 5.373,-2.158 1.822,0 3.031,0.511 4.053,1.435 v 0.735 l -1.955,3.591 h -0.953 c -0.621,-1.084 -1.784,-2.101 -3.875,-2.101 -0.987,0 -1.807,0.242 -2.547,0.736 v 11.733 c 0,3.056 0.099,4.505 0.5,5.113 0.646,0.982 2.58,1.084 3.687,1.047 v 1.289 c -1.597,-0.088 -4.353,-0.225 -6.332,-0.225 -2.25,0 -4.469,0.041 -6.322,0.246 v -1.172 c 1.297,-0.064 2.025,-0.423 2.529,-0.99 0.723,-0.814 0.758,-2.72 0.758,-6.678 v -6.648 c 0,-2.877 -0.021,-4.119 -0.461,-4.721 -0.383,-0.525 -1.224,-0.832 -2.724,-0.849 z m -13.875,1.265 c -1.383,0 -2.483,0.358 -3.305,1.057 -1.86,1.568 -2.809,4.406 -2.809,8.469 0,1.566 0.291,9.388 6.018,9.388 1.361,0 2.478,-0.353 3.281,-1.051 1.881,-1.568 2.824,-4.425 2.824,-8.486 0,-1.552 -0.293,-9.377 -6.009,-9.377 z m -0.292,21.61 c -7.103,0 -11.349,-4.432 -11.349,-11.83 0,-5.766 3.103,-12.467 11.838,-12.467 7.099,0 11.33,4.412 11.33,11.826 0,5.738 -3.094,12.471 -11.819,12.471 z M 155.664,36.01 c 0.953,0.014 1.965,-0.347 2.531,-0.984 0.719,-0.811 0.762,-2.773 0.762,-6.731 V 16.756 H 155.92 V 15.45 c 1.279,-0.494 2.402,-1.074 3.037,-1.572 0.004,-2.051 0.07,-4.715 0.352,-6.165 0.896,-4.793 4.048,-7.24 9.316,-7.24 2.326,0 4.535,0.793 5.869,1.932 l 0.074,0.49 -2.308,3.197 -0.567,0.01 c -0.785,-1.928 -1.965,-3.033 -4.05,-3.033 -0.721,0 -1.725,0.224 -2.346,0.836 -0.994,1.002 -1.17,2.496 -1.17,5.467 v 4.496 h 5.189 v 2.888 h -5.189 v 12.909 c 0,3.056 0.105,4.558 0.506,5.164 0.646,0.974 2.693,1.091 3.699,1.052 v 1.233 c -1.711,-0.104 -4.363,-0.225 -6.348,-0.225 -2.884,0 -4.765,0.084 -6.32,0.246 z M 126.757,14.745 c 1.182,0.093 2.961,-0.028 4.702,-0.328 1.467,-0.254 1.998,-0.461 3.097,-1.014 l 0.458,0.275 v 1.848 c 1.175,-0.867 3.535,-2.242 6.752,-2.242 4.185,0 6.927,1.959 7.705,5.521 0.22,0.883 0.304,3.014 0.304,4.16 v 6.788 c 0,3.843 0.153,4.912 0.869,5.599 0.366,0.32 1.221,0.672 2.256,0.672 v 1.088 c -1.492,-0.072 -4.152,-0.223 -5.756,-0.223 -2.132,0 -4.529,0.102 -5.824,0.246 v -1.068 c 1.155,-0.119 1.942,-0.455 2.348,-0.85 0.672,-0.673 0.787,-2.017 0.887,-4.908 0.029,-0.861 0.052,-2.686 0.052,-4.021 0,-1.737 0,-3.543 -0.201,-5.317 -0.344,-3.012 -1.928,-4.41 -4.933,-4.41 -2.1,0 -3.383,0.479 -4.363,0.975 v 12.217 c 0,3.843 0.152,4.912 0.886,5.599 0.354,0.32 1.266,0.68 2.244,0.672 v 1.09 c -1.926,-0.1 -4.237,-0.225 -5.721,-0.225 -3.094,0 -4.066,0.063 -5.863,0.246 V 36.03 c 1.006,-0.012 1.983,-0.371 2.528,-0.992 0.709,-0.799 0.75,-2.785 0.75,-6.743 v -6.646 c 0,-2.879 -0.055,-4.098 -0.461,-4.721 -0.316,-0.484 -1.117,-0.871 -2.716,-0.851 z M 63.898,36.081 c 0,-2.338 0.017,-4.323 -0.174,-6.721 h 1.382 c 0.016,1.482 0.431,2.578 1.073,3.306 0.988,1.112 3.272,1.79 5.391,1.79 4.427,0 6.494,-1.682 6.494,-5.284 0,-3.089 -1.908,-4.369 -4.549,-6.154 l -0.408,-0.283 -2.781,-1.856 c -3.872,-2.562 -5.854,-4.617 -5.854,-8.718 0,-2.004 0.768,-8.555 10.513,-8.555 2.458,0 5.692,0.26 7.643,0.625 -0.021,0.31 -0.05,1.81 -0.05,3.068 0,1.463 0,1.948 0.055,3.737 H 81.451 C 81.414,9.461 80.982,8.448 80.296,7.768 79.355,6.832 77.282,6.395 75.089,6.395 c -5.168,0 -5.775,2.648 -5.775,4.641 0,2.746 1.404,3.67 4.465,5.701 l 3.537,2.334 c 3.003,2 5.833,3.894 5.833,8.877 0,8.435 -7.859,9.342 -11.237,9.342 -3.066,0 -5.528,-0.379 -8.014,-1.209 z m 52.116,-10.969 c -3.09,0.931 -4.153,1.441 -5.101,1.937 -1.355,0.666 -2.034,2.037 -2.034,3.651 0,1.258 0.449,3.373 3.469,3.373 0.998,0 2.429,-0.192 3.666,-1.078 z m -5.569,12.226 c -6.318,0 -6.799,-4.773 -6.799,-6.25 0,-1.728 0.45,-4.781 4.473,-6.255 4.149,-1.522 5.037,-1.7 7.895,-2.594 v -0.748 c 0,-1.381 0,-1.711 -0.279,-2.578 -0.544,-1.629 -2.124,-2.67 -4.26,-2.67 -2.141,0 -3.905,1.179 -4.702,2.89 l -1.166,-0.685 c 0.745,-2.633 3.387,-5.25 7.953,-5.25 3.249,0 5.372,0.918 6.665,2.906 0.988,1.572 1.074,3.762 1.074,6.033 0,2.008 -0.059,4.233 -0.097,6.035 -0.034,1.243 -0.061,2.311 -0.061,2.967 0,1.635 0.259,2.908 1.627,2.908 0.563,0 0.675,-0.15 1.158,-0.539 l 0.747,0.864 c -1.23,1.605 -2.583,2.927 -4.856,2.927 -1.842,0 -3.127,-0.883 -3.553,-2.359 -1.036,1.07 -2.893,2.398 -5.819,2.398 z"
     transform="scale(4.16667)" /><path
     inkscape:connector-curvature="0"
     id="path4"
     style="fill:#000000;fill-rule:nonzero;filter:url(#filter529)"
     d="m 148.383,60.965 h 5.845 c 0,-1.759 -0.347,-3.765 -2.921,-3.765 -2.395,0 -2.873,2.24 -2.924,3.765 z m 3.603,9.932 c -4.468,0 -6.924,-2.584 -6.924,-7.275 0,-0.827 0.196,-8.059 6.997,-8.059 2.037,0 3.775,0.836 4.632,2.228 0.864,1.383 0.979,2.807 0.979,4.022 v 0.785 h -9.322 c 0.009,0.762 0.058,1.352 0.15,1.875 0.502,2.867 2.102,4.258 4.902,4.258 1.575,0 2.575,-0.336 3.528,-0.875 l 0.441,0.74 c -1.041,1.358 -3.066,2.301 -5.383,2.301 z M 103.31,56.448 c 0.754,0.06 1.889,-0.016 3,-0.209 0.936,-0.162 1.277,-0.297 1.973,-0.649 l 0.295,0.174 v 1.182 c 0.75,-0.553 2.255,-1.432 4.311,-1.432 2.67,0 4.42,1.254 4.912,3.524 0.14,0.564 0.197,1.922 0.197,2.656 v 4.334 c 0,2.447 0.096,3.129 0.555,3.572 0.234,0.203 0.778,0.428 1.441,0.428 v 0.693 c -0.957,-0.047 -2.65,-0.142 -3.676,-0.142 -1.359,0 -2.89,0.06 -3.716,0.154 v -0.678 c 0.736,-0.08 1.239,-0.295 1.498,-0.547 0.429,-0.427 0.504,-1.285 0.566,-3.129 0.018,-0.55 0.035,-1.714 0.035,-2.568 0,-1.107 0,-2.258 -0.129,-3.389 -0.22,-1.925 -1.23,-2.818 -3.149,-2.818 -1.337,0 -2.156,0.309 -2.784,0.627 v 7.797 c 0,2.447 0.099,3.129 0.564,3.572 0.227,0.203 0.809,0.432 1.434,0.428 v 0.693 c -1.231,-0.066 -2.702,-0.142 -3.651,-0.142 -1.97,0 -2.595,0.037 -3.739,0.154 v -0.701 c 0.64,-0.008 1.267,-0.239 1.612,-0.633 0.45,-0.512 0.479,-1.781 0.479,-4.305 v -4.24 c 0,-1.84 -0.035,-2.613 -0.293,-3.014 -0.203,-0.31 -0.717,-0.552 -1.735,-0.541 z M 136,55.835 c -0.297,0 -0.967,0.039 -1.365,0.062 -0.758,0.035 -1.617,0.076 -2.167,0.076 -1.086,0 -2.704,-0.097 -3.204,-0.146 v 0.879 c 0.168,0.005 1.021,-0.073 1.458,0.869 0.175,0.373 0.335,0.744 0.382,0.867 0.076,0.193 0.17,0.432 0.211,0.519 l 4.778,12.03 1.473,-0.254 5.256,-11.824 c 0.037,-0.081 0.106,-0.211 0.178,-0.369 0.066,-0.147 0.139,-0.331 0.475,-0.942 0.337,-0.605 0.996,-0.918 1.541,-0.877 l 0.031,-0.898 c -0.604,0.041 -1.912,0.146 -2.879,0.146 -0.508,0 -1.025,-0.037 -1.522,-0.07 -0.357,-0.022 -0.996,-0.059 -1.355,-0.068 v 0.835 c 0.477,-0.011 1.025,0.194 1.25,0.411 0.125,0.101 0.26,0.369 0.26,0.566 0,0.332 -0.053,0.6 -0.403,1.494 l -2.865,7.096 c -0.136,-0.426 -0.332,-1.014 -0.611,-1.752 l -2.041,-5.334 c -0.299,-0.811 -0.371,-1.135 -0.371,-1.488 0,-0.203 0.042,-0.36 0.193,-0.535 0.275,-0.307 0.772,-0.458 1.281,-0.463 z m 67.664,13.38 c -0.451,0.549 -1.605,1.696 -4.018,1.696 -2.296,0 -3.574,-0.815 -4.134,-2.655 -0.233,-0.73 -0.233,-2.16 -0.233,-3.023 0,-2.377 0.02,-4.277 0.047,-6.482 l 0.01,-1.032 h -1.959 v -0.582 c 0.801,-0.306 1.338,-0.629 1.863,-1.025 1.145,-0.893 1.881,-2.01 2.762,-3.571 h 0.652 v 3.333 h 5.041 v 1.845 h -5.041 v 7.791 c 0,2.332 0.424,3.66 2.623,3.66 1.032,0 1.707,-0.334 2.137,-0.56 z m -31.402,0.967 c -0.006,-1.527 -0.088,-3.117 -0.19,-3.922 h 0.981 c 0.027,0.836 0.23,1.459 0.64,1.949 0.592,0.721 1.303,0.985 2.617,0.985 h 0.18 c 1.641,0 2.479,-0.692 2.479,-2.051 0,-1.115 -0.713,-1.564 -1.893,-2.311 l -2.119,-1.31 c -1.121,-0.69 -2.414,-1.734 -2.414,-3.768 0,-1.738 0.715,-2.963 2.127,-3.66 0.918,-0.459 2.252,-0.531 2.965,-0.531 1.218,0 2.931,0.16 3.924,0.373 -0.069,0.4 -0.092,1.447 -0.092,1.785 0,0.307 0.019,1.721 0.052,1.977 h -0.976 c 0,-0.631 -0.166,-1.209 -0.555,-1.709 -0.357,-0.461 -1.256,-0.85 -2.353,-0.85 -1.502,0 -2.272,0.639 -2.272,1.899 0,1.039 0.799,1.525 1.506,1.953 l 0.074,0.045 1.992,1.183 c 1.34,0.782 3.012,1.754 3.012,4.143 0,3.914 -3.56,4.502 -5.685,4.502 -1.35,0 -2.616,-0.178 -4,-0.682 z M 188.049,52.95 c -1.158,0 -1.938,-0.743 -1.938,-1.848 0,-1.141 0.801,-1.912 2,-1.912 1.157,0 1.944,0.744 1.944,1.85 0,1.142 -0.805,1.91 -2.006,1.91 z m -3.682,17.064 c 0.832,-0.092 1.336,-0.183 1.725,-0.623 0.457,-0.521 0.486,-1.728 0.486,-4.285 v -4.24 c 0,-1.832 -0.031,-2.737 -0.297,-3.141 -0.238,-0.346 -0.64,-0.484 -1.697,-0.556 v -0.854 c 0.633,0.096 2.166,-0.053 3.412,-0.295 0.645,-0.107 1.254,-0.32 1.641,-0.519 l 0.332,0.326 c -0.094,0.953 -0.131,3.107 -0.131,5.883 v 4.335 c 0,1.959 0.062,2.864 0.326,3.252 0.26,0.405 0.934,0.662 1.816,0.707 v 0.707 c -0.888,-0.052 -2.416,-0.138 -3.742,-0.138 -1.482,0 -3.064,0.058 -3.871,0.152 z M 124.824,52.95 c -1.161,0 -1.935,-0.743 -1.935,-1.848 0,-1.141 0.797,-1.912 1.995,-1.912 1.16,0 1.944,0.744 1.944,1.85 0,1.142 -0.807,1.91 -2.004,1.91 z m -3.687,17.064 c 0.838,-0.092 1.34,-0.183 1.728,-0.623 0.463,-0.521 0.488,-1.728 0.488,-4.285 v -4.24 c 0,-1.832 -0.03,-2.737 -0.294,-3.141 -0.241,-0.346 -0.643,-0.484 -1.698,-0.556 v -0.854 c 0.627,0.096 2.162,-0.053 3.41,-0.295 0.643,-0.107 1.25,-0.32 1.639,-0.519 l 0.332,0.326 c -0.092,0.953 -0.132,3.107 -0.132,5.883 v 4.335 c 0,1.959 0.062,2.864 0.329,3.252 0.262,0.405 0.932,0.662 1.822,0.707 v 0.707 c -0.898,-0.052 -2.424,-0.138 -3.749,-0.138 -1.482,0 -3.061,0.058 -3.875,0.152 z m -28.522,0.912 c -4.227,0 -6.653,-1.31 -7.631,-4.125 -0.487,-1.449 -0.487,-3.15 -0.487,-4.644 V 54.2 c 0,-2.424 -0.111,-2.785 -0.558,-3.184 -0.192,-0.172 -0.731,-0.418 -1.434,-0.453 v -0.82 c 1.008,0.109 2.653,0.152 3.686,0.152 1.738,0 2.66,-0.047 3.777,-0.154 v 0.851 c -0.67,-0.029 -1.224,0.159 -1.596,0.586 -0.466,0.518 -0.49,1.426 -0.49,3.957 v 7.051 c 0,4.156 0.356,6.885 5.138,6.885 4.753,0 5.11,-2.805 5.11,-7.07 V 54.2 c 0,-2.424 -0.115,-2.785 -0.556,-3.184 -0.272,-0.238 -0.848,-0.422 -1.438,-0.453 v -0.807 c 0.936,0.03 2.135,0.139 3.278,0.139 1.1,0 2.207,-0.029 3.534,-0.154 v 0.851 c -0.7,-0.029 -1.229,0.17 -1.6,0.586 -0.468,0.522 -0.495,1.426 -0.495,3.957 v 5.959 c 0,1.895 0,4.047 -0.603,5.711 -1.022,2.815 -3.446,4.121 -7.635,4.121 z m 66.672,-14.541 c 1.01,0.057 2.098,-0.066 3.244,-0.267 0.883,-0.157 1.444,-0.348 1.76,-0.496 l 0.271,0.132 v 1.287 c 0.715,-0.667 1.836,-1.376 3.432,-1.376 1.16,0 1.934,0.326 2.584,0.914 v 0.47 l -1.246,2.293 h -0.611 c -0.395,-0.693 -1.139,-1.343 -2.473,-1.343 -0.629,0 -1.148,0.158 -1.623,0.472 v 7.486 c 0,1.954 0.064,2.877 0.32,3.262 0.41,0.625 1.641,0.692 2.35,0.67 v 0.818 c -1.02,-0.054 -2.777,-0.14 -4.043,-0.14 -1.432,0 -2.852,0.027 -4.027,0.158 v -0.75 c 0.826,-0.041 1.291,-0.269 1.609,-0.629 0.461,-0.519 0.48,-1.738 0.48,-4.264 v -4.24 c 0,-1.836 -0.011,-2.629 -0.287,-3.011 -0.246,-0.336 -0.783,-0.532 -1.74,-0.541 z m 52.885,0.264 c -0.412,0 -0.885,0.139 -1.205,0.379 -0.258,0.193 -0.317,0.516 -0.317,0.717 0,0.373 0.133,0.74 0.395,1.455 l 2.178,5.789 c 0.332,0.865 0.564,1.584 0.72,2.09 l 2.659,-7.918 c 0.318,-0.914 0.371,-1.131 0.371,-1.469 0,-0.195 -0.12,-0.428 -0.262,-0.578 -0.26,-0.25 -0.711,-0.389 -1.244,-0.428 v -0.851 c 0.318,0 1.019,0.043 1.34,0.068 0.304,0.025 0.941,0.07 1.449,0.07 0.99,0 2.359,-0.086 2.957,-0.146 v 0.869 c -0.401,0.051 -1.326,-0.074 -2.055,2.178 l -5.689,15.203 c -0.83,2.193 -1.862,4.923 -5.85,4.923 -1.59,0 -2.742,-0.388 -3.56,-1.187 v -0.41 l 1.402,-1.709 0.396,-0.006 c 0.422,0.922 1.196,1.307 2.262,1.307 1.807,0 2.596,-1.553 3.844,-4.834 l 0.34,-0.897 -4.842,-12.377 c -0.041,-0.088 -0.104,-0.259 -0.182,-0.455 -0.135,-0.336 -0.396,-0.916 -0.396,-0.916 -0.278,-0.584 -0.826,-0.836 -1.449,-0.81 v -0.879 c 0.919,0.074 2.488,0.146 3.306,0.146 0.541,0 1.346,-0.041 2.059,-0.076 0.398,-0.023 1.06,-0.053 1.373,-0.062 z"
     transform="scale(4.16667)" /><path
     inkscape:connector-curvature="0"
     id="path6"
     style="fill:#ffffff;fill-rule:nonzero;filter:url(#filter529)"
     d="m 45.197,23.414 -14.249,0.014 c -0.913,-0.702 -1.94,-1.317 -2.772,-1.569 -1.739,-0.525 -1.539,-1.031 -1.453,-1.158 0.164,-0.083 0.406,-0.161 0.754,-0.228 0.562,-0.107 1.361,0.089 1.361,0.089 1.248,0.217 1.777,-0.399 0.78,-1.126 -0.537,-0.39 -0.871,-0.505 -2.386,-1.175 -0.992,-0.438 -0.854,-1.548 -0.468,-1.588 0.599,-0.062 2.215,0.444 1.079,-0.83 0,0 -0.88,-0.867 -1.517,-1.108 -0.638,-0.244 -0.004,-0.625 0.225,-0.745 0.23,-0.12 1.036,-0.342 -0.094,-1.2 0,0 -1.983,-1.205 -1.206,-1.771 C 26.052,10.434 26.362,9.981 25.619,9.93 25.093,9.893 24.58,9.703 24.712,9.172 24.744,8.984 25.195,8.676 25.345,8.488 25.544,8.241 25.373,8.155 25.264,8.126 25.205,8.112 25.137,8.105 25.053,8.105 24.661,8.107 24.433,7.88 24.232,7.35 23.991,6.385 23.825,5.519 23.825,5.519 c -0.01,0 -0.021,-0.003 -0.034,-0.003 H 23.79 c -0.171,0.001 -0.178,0.11 -0.296,0.624 -0.387,1.705 -0.58,2.359 -1.246,2.357 -0.087,0 -0.156,0.007 -0.214,0.018 -0.111,0.031 -0.277,0.117 -0.08,0.364 0.274,0.342 0.92,0.644 0.933,0.891 0.012,0.215 -0.168,0.409 -0.423,0.645 -0.262,0.263 -0.914,0.699 -0.914,0.699 0,0 -0.808,0.499 -0.95,0.775 -0.179,0.414 0.744,0.391 0.744,0.391 1.644,0.062 0.954,0.667 0.686,0.762 -0.425,0.149 -0.778,0.244 -1.209,0.488 -0.541,0.347 -1.083,0.88 -1.083,0.88 -1.137,1.275 0.478,0.768 1.078,0.83 0.386,0.04 0.525,1.15 -0.469,1.588 -0.634,0.281 -1.061,0.464 -1.383,0.61 -0.163,0.087 -0.741,0.41 -1.094,0.918 -0.378,0.543 0.764,0.367 1.546,0.428 0.509,0.04 1.11,-0.377 1.477,-0.34 0.459,0.047 0.601,0.143 0.674,0.436 0.079,0.317 -0.153,0.633 -0.494,0.911 -0.1,0.129 -0.275,0.234 -0.394,0.286 -0.008,0.004 -0.018,0.008 -0.027,0.013 -0.48,0.298 -1.003,0.524 -1.216,0.61 -1.562,0.837 -3.879,2.24 -4.839,3.315 -0.715,0.801 -0.128,1.237 0.18,1.1 0.309,-0.139 0.839,-0.449 1.668,-0.285 0.669,0.132 1.547,-0.088 2.234,-0.269 0.606,-0.13 1.192,-1.144 1.429,-0.754 0.571,0.933 -0.408,2.03 -0.799,2.411 -0.761,1.014 -2.87,1.935 -3.717,2.621 -0.985,0.797 -1.389,1.84 -1.657,3.892 -0.265,2.052 0.801,0.587 0.801,0.587 0.266,-0.32 0.88,-1.046 2.452,-1.046 1.573,0 1.872,-0.452 2.424,-0.766 1.003,-0.568 0.481,0.766 0.481,0.766 -0.667,1.481 -1.86,1.492 -3.193,2.329 -0.119,0.087 -0.228,0.198 -0.481,0.449 -0.561,0.551 -0.383,0.779 -0.075,0.732 0.304,-0.046 0.792,0.144 1.3,0.127 0.531,-0.018 0.978,-0.125 1.574,-0.384 0.595,-0.259 0.899,-0.742 1.279,-0.498 0.254,0.162 0.204,0.576 0.142,0.834 -0.017,0.301 -0.396,0.84 -0.609,1.078 -0.359,0.405 -2.354,1.708 -3.052,2.029 -0.095,0.043 -0.187,0.088 -0.277,0.135 -0.026,0.019 -0.055,0.038 -0.089,0.056 -0.919,0.522 -1.53,1.311 -1.53,1.311 -0.161,0.233 -0.994,1.572 0.145,0.993 1.142,-0.579 2.662,0.401 3.415,0.028 0.444,-0.219 0.291,0.675 0.276,0.76 -0.003,0.299 -0.053,0.603 -0.102,0.703 -0.334,0.663 -0.588,0.621 -1.797,1.138 H 9.965 L 2.456,36.574 V 12.072 L 11.281,3.591 H 36.37 l 8.827,8.495 z M 27.383,37.111 c 0.928,0.243 1.402,0.888 2.987,0.461 0,0 0.658,-0.129 1.058,0.078 0.404,0.207 1.455,-0.08 -0.507,-1.456 -1.43,-1.001 -2.727,-0.919 -3.435,-2.488 0,0 -0.261,-0.472 -0.136,-0.705 h -0.001 c 0.058,-0.137 0.422,-0.5 0.923,-0.322 0.491,0.174 2.288,0.947 3.04,1.125 0.403,0.092 0.71,0.24 0.945,0.397 0.334,0.2 1.37,0.575 1.366,-0.195 -0.176,-1.279 -0.414,-2.152 -0.827,-2.821 l 4.89,0.002 7.511,7.506 V 62.076 L 36.37,70.57 33.89,70.569 c -1.295,-0.015 -3.234,-0.782 -3.828,-1.493 -1.291,-1.543 -1.985,-1.371 -2.899,-2.285 -1.115,-1.115 -1.373,-2.427 -1.433,-3.806 0,-4.635 0,-6.147 0,-6.147 0,0 -0.098,-1.245 0.89,-0.476 0.985,0.767 1.54,0.681 3.204,0.552 1.665,-0.132 3.489,1.367 4.447,1.952 0.957,0.586 2.907,2.045 0.892,-3.051 -0.389,-0.985 -1.551,-1.668 -2.15,-1.966 -0.368,-0.197 -0.907,-0.866 -0.408,-1.432 0,0 0.999,-0.883 0.457,-1.486 -0.178,-0.216 -0.624,-0.427 -1.607,-0.549 -1.126,-0.138 -2.305,-0.829 -2.763,-1.931 -0.088,-0.72 0.895,-0.989 1.385,-0.658 0.508,0.337 1.579,0.709 2.173,0.79 1.859,0.255 1.647,0.09 1.442,-0.49 -0.128,-0.359 -0.413,-1.213 -1.628,-1.85 -2.557,-1.337 -2.858,-0.979 -3.3,-1.855 -0.126,-0.251 -0.247,-1.78 0.366,-1.321 0.009,0.007 0.013,0.01 0.02,0.013 0.117,0.124 0.253,0.272 0.42,0.399 0.639,0.495 1.146,0.559 2.043,0.538 0.895,-0.019 0.998,0.344 1.36,0.51 0.361,0.166 0.844,0.463 0.4,-0.884 -0.47,-1.427 -1.257,-2.549 -2.772,-3.241 -0.697,-0.321 -2.692,-1.625 -3.051,-2.029 -0.334,-0.377 -1.093,-1.507 -0.167,-1.262 z m -5.532,18.281 v 0.593 l -10e-4,10e-4 c 0,0.222 0,0.518 0,0.89 l -0.006,-0.038 c 0,0 0,0.967 0,3.723 -0.022,1.786 -0.151,3.43 -0.875,4.152 -0.686,0.686 -1.765,1.49 -2.376,2.437 -0.809,1.251 -1.806,3.278 -4.474,3.407 L 11.281,70.556 2.456,62.06 2.46,51.984 h 11.177 c 10e-4,0 10e-4,0 0.002,-0.001 h 1.683 c -0.18,0.174 -0.383,0.264 -0.383,0.264 0,0 -1.988,0.786 -2.521,2.134 -0.382,0.965 -0.621,1.695 -0.752,2.241 l 0.007,10e-4 c -0.274,1.205 0.4,1.71 0.877,1.096 0.769,-0.986 3.458,-2.359 4.389,-2.442 0.935,-0.081 2.552,0 3.513,-1.015 0.96,-1.015 1.399,-0.986 1.399,-0.615 v 1.605 c 0.002,0.064 0.002,0.116 0,0.14 z M 46.425,11.564 36.863,2.363 H 10.789 l -9.562,9.186 v 25.532 l 8.229,8.238 5.307,0.002 c -0.596,0.524 -0.78,1.07 -0.875,1.338 -0.206,0.581 -0.417,0.747 1.443,0.492 0.593,-0.082 1.666,-0.454 2.171,-0.791 0.491,-0.332 1.474,-0.063 1.386,0.659 -0.459,1.101 -1.635,1.791 -2.762,1.93 -2.585,0.319 -1.47,1.265 -1.47,1.265 0.287,0.194 0.491,0.376 0.636,0.544 h -1.258 c 0,-0.001 -0.001,-0.001 -0.001,-0.002 h -12.8 l -0.006,11.827 9.56,9.216 h 26.076 l 9.562,-9.201 V 38.184 l -8.231,-8.225 h -6.648 c -0.53,-0.343 -1.245,-0.732 -1.895,-1.151 -0.001,-0.002 -0.003,-0.002 -0.006,-0.004 -0.249,-0.143 -0.495,-0.32 -0.726,-0.517 -0.198,-0.157 -0.375,-0.317 -0.52,-0.479 -0.577,-0.586 -1.008,-1.202 -1.122,-1.483 -0.212,-0.521 -0.163,-1.179 0.319,-0.906 1.229,0.696 3.249,0.828 3.998,0.851 0.085,-0.001 0.691,0.066 0.832,0.111 0.15,0.058 0.384,0.169 0.384,0.169 0.302,0.127 0.852,-0.286 0.219,-1.046 -0.168,-0.261 -0.415,-0.556 -0.711,-0.863 l 14.107,0.001 z"
     transform="scale(4.16667)" /><path
     inkscape:connector-curvature="0"
     id="path8"
     style="fill:#030404;fill-rule:nonzero;filter:url(#filter529)"
     d="m 27.55,38.373 c 0.359,0.404 2.354,1.708 3.051,2.029 1.515,0.692 2.302,1.814 2.772,3.241 0.444,1.347 -0.039,1.05 -0.4,0.884 -0.362,-0.166 -0.465,-0.529 -1.36,-0.51 -0.897,0.021 -1.404,-0.043 -2.043,-0.538 -0.167,-0.127 -0.303,-0.275 -0.42,-0.399 -0.007,-0.003 -0.011,-0.006 -0.02,-0.013 -0.613,-0.459 -0.492,1.07 -0.366,1.321 0.442,0.876 0.743,0.518 3.3,1.855 1.215,0.637 1.5,1.491 1.628,1.85 0.205,0.58 0.417,0.745 -1.442,0.49 -0.594,-0.081 -1.665,-0.453 -2.173,-0.79 -0.49,-0.331 -1.473,-0.062 -1.385,0.658 0.458,1.102 1.637,1.793 2.763,1.931 0.983,0.122 1.429,0.333 1.607,0.549 0.542,0.603 -0.457,1.486 -0.457,1.486 -0.499,0.566 0.04,1.235 0.408,1.432 0.599,0.298 1.761,0.981 2.15,1.966 2.015,5.096 0.065,3.637 -0.892,3.051 -0.958,-0.585 -2.782,-2.084 -4.447,-1.952 -1.664,0.129 -2.219,0.215 -3.204,-0.552 -0.988,-0.769 -0.89,0.476 -0.89,0.476 0,0 0,1.512 0,6.147 0.06,1.379 0.318,2.691 1.433,3.806 0.914,0.914 1.608,0.742 2.899,2.285 0.594,0.711 2.533,1.478 3.828,1.493 l 2.48,10e-4 8.827,-8.494 V 38.693 l -7.511,-7.506 -4.89,-0.002 c 0.413,0.669 0.651,1.542 0.827,2.821 0.004,0.77 -1.032,0.395 -1.366,0.195 -0.235,-0.157 -0.542,-0.305 -0.945,-0.397 -0.752,-0.178 -2.549,-0.951 -3.04,-1.125 -0.501,-0.178 -0.865,0.185 -0.923,0.322 h 0.001 c -0.125,0.233 0.136,0.705 0.136,0.705 0.708,1.569 2.005,1.487 3.435,2.488 1.962,1.376 0.911,1.663 0.507,1.456 -0.4,-0.207 -1.058,-0.078 -1.058,-0.078 -1.585,0.427 -2.059,-0.218 -2.987,-0.461 -0.926,-0.245 -0.167,0.885 0.167,1.262 z"
     transform="scale(4.16667)" /><path
     inkscape:connector-curvature="0"
     id="path10"
     style="fill:#030404;fill-rule:nonzero;filter:url(#filter529)"
     d="m 18.593,67.15 c 0.611,-0.947 1.69,-1.751 2.376,-2.437 0.724,-0.722 0.853,-2.366 0.875,-4.152 0,-2.756 0,-3.723 0,-3.723 l 0.006,0.038 c 0,-0.372 0,-0.668 0,-0.89 l 10e-4,-10e-4 v -0.593 c 0.002,-0.024 0.002,-0.076 0,-0.14 v -1.605 c 0,-0.371 -0.439,-0.4 -1.399,0.615 -0.961,1.015 -2.578,0.934 -3.513,1.015 -0.931,0.083 -3.62,1.456 -4.389,2.442 -0.477,0.614 -1.151,0.109 -0.877,-1.096 l -0.007,-10e-4 c 0.131,-0.546 0.37,-1.276 0.752,-2.241 0.533,-1.348 2.521,-2.134 2.521,-2.134 0,0 0.203,-0.09 0.383,-0.264 h -1.683 c -10e-4,0.001 -10e-4,0.001 -0.002,0.001 H 2.46 l -0.004,10.076 8.825,8.496 2.838,0.001 c 2.668,-0.129 3.665,-2.156 4.474,-3.407 z"
     transform="scale(4.16667)" /><path
     inkscape:connector-curvature="0"
     id="path12"
     style="fill:#030404;fill-rule:nonzero;filter:url(#filter529)"
     d="m 11.281,3.591 -8.825,8.481 v 24.502 l 7.509,7.518 h 7.054 c 1.209,-0.517 1.463,-0.475 1.797,-1.138 0.049,-0.1 0.099,-0.404 0.102,-0.703 0.015,-0.085 0.168,-0.979 -0.276,-0.76 -0.753,0.373 -2.273,-0.607 -3.415,-0.028 -1.139,0.579 -0.306,-0.76 -0.145,-0.993 0,0 0.611,-0.789 1.53,-1.311 0.034,-0.018 0.063,-0.037 0.089,-0.056 0.09,-0.047 0.182,-0.092 0.277,-0.135 0.698,-0.321 2.693,-1.624 3.052,-2.029 0.213,-0.238 0.592,-0.777 0.609,-1.078 0.062,-0.258 0.112,-0.672 -0.142,-0.834 -0.38,-0.244 -0.684,0.239 -1.279,0.498 -0.596,0.259 -1.043,0.366 -1.574,0.384 -0.508,0.017 -0.996,-0.173 -1.3,-0.127 -0.308,0.047 -0.486,-0.181 0.075,-0.732 0.253,-0.251 0.362,-0.362 0.481,-0.449 1.333,-0.837 2.526,-0.848 3.193,-2.329 0,0 0.522,-1.334 -0.481,-0.766 -0.552,0.314 -0.851,0.766 -2.424,0.766 -1.572,0 -2.186,0.726 -2.452,1.046 0,0 -1.066,1.465 -0.801,-0.587 0.268,-2.052 0.672,-3.095 1.657,-3.892 0.847,-0.686 2.956,-1.607 3.717,-2.621 0.391,-0.381 1.37,-1.478 0.799,-2.411 -0.237,-0.39 -0.823,0.624 -1.429,0.754 -0.687,0.181 -1.565,0.401 -2.234,0.269 -0.829,-0.164 -1.359,0.146 -1.668,0.285 -0.308,0.137 -0.895,-0.299 -0.18,-1.1 0.96,-1.075 3.277,-2.478 4.839,-3.315 0.213,-0.086 0.736,-0.312 1.216,-0.61 0.009,-0.005 0.019,-0.009 0.027,-0.013 0.119,-0.052 0.294,-0.157 0.394,-0.286 0.341,-0.278 0.573,-0.594 0.494,-0.911 -0.073,-0.293 -0.215,-0.389 -0.674,-0.436 -0.367,-0.037 -0.968,0.38 -1.477,0.34 -0.782,-0.061 -1.924,0.115 -1.546,-0.428 0.353,-0.508 0.931,-0.831 1.094,-0.918 0.322,-0.146 0.749,-0.329 1.383,-0.61 0.994,-0.438 0.855,-1.548 0.469,-1.588 -0.6,-0.062 -2.215,0.445 -1.078,-0.83 0,0 0.542,-0.533 1.083,-0.88 0.431,-0.244 0.784,-0.339 1.209,-0.488 0.268,-0.095 0.958,-0.7 -0.686,-0.762 0,0 -0.923,0.023 -0.744,-0.391 0.142,-0.276 0.95,-0.775 0.95,-0.775 0,0 0.652,-0.436 0.914,-0.699 0.255,-0.236 0.435,-0.43 0.423,-0.645 C 22.874,9.523 22.228,9.221 21.954,8.879 21.757,8.632 21.923,8.546 22.034,8.515 22.092,8.504 22.161,8.497 22.248,8.497 22.914,8.499 23.107,7.845 23.494,6.14 23.612,5.626 23.619,5.517 23.79,5.516 h 0.001 c 0.013,0 0.024,0.003 0.034,0.003 0,0 0.166,0.866 0.407,1.831 0.201,0.53 0.429,0.757 0.821,0.755 0.084,0 0.152,0.007 0.211,0.021 0.109,0.029 0.28,0.115 0.081,0.362 -0.15,0.188 -0.601,0.496 -0.633,0.684 -0.132,0.531 0.381,0.721 0.907,0.758 0.743,0.051 0.433,0.504 -0.368,1.089 -0.777,0.566 1.206,1.771 1.206,1.771 1.13,0.858 0.324,1.08 0.094,1.2 -0.229,0.12 -0.863,0.501 -0.225,0.745 0.637,0.241 1.517,1.108 1.517,1.108 1.136,1.274 -0.48,0.768 -1.079,0.83 -0.386,0.04 -0.524,1.15 0.468,1.588 1.515,0.67 1.849,0.785 2.386,1.175 0.997,0.727 0.468,1.343 -0.78,1.126 0,0 -0.799,-0.196 -1.361,-0.089 -0.348,0.067 -0.59,0.145 -0.754,0.228 -0.086,0.127 -0.286,0.633 1.453,1.158 0.832,0.252 1.859,0.867 2.772,1.569 L 45.197,23.414 V 12.086 L 36.37,3.591 Z"
     transform="scale(4.16667)" /><path
     inkscape:connector-curvature="0"
     id="path14"
     style="fill:#030404;fill-rule:nonzero;filter:url(#filter529)"
     d="M 46.425,24.642 32.318,24.641 c 0.296,0.307 0.543,0.602 0.711,0.863 0.633,0.76 0.083,1.173 -0.219,1.046 0,0 -0.234,-0.111 -0.384,-0.169 -0.141,-0.045 -0.747,-0.112 -0.832,-0.111 -0.749,-0.023 -2.769,-0.155 -3.998,-0.851 -0.482,-0.273 -0.531,0.385 -0.319,0.906 0.114,0.281 0.545,0.897 1.122,1.483 0.145,0.162 0.322,0.322 0.52,0.479 0.231,0.197 0.477,0.374 0.726,0.517 0.003,0.002 0.005,0.002 0.006,0.004 0.65,0.419 1.365,0.808 1.895,1.151 h 6.648 l 8.231,8.225 v 24.414 l -9.562,9.201 H 10.787 L 1.227,62.583 1.233,50.756 h 12.8 c 0,10e-4 0.001,10e-4 0.001,0.002 h 1.258 c -0.145,-0.168 -0.349,-0.35 -0.636,-0.544 0,0 -1.115,-0.946 1.47,-1.265 1.127,-0.139 2.303,-0.829 2.762,-1.93 0.088,-0.722 -0.895,-0.991 -1.386,-0.659 -0.505,0.337 -1.578,0.709 -2.171,0.791 -1.86,0.255 -1.649,0.089 -1.443,-0.492 0.095,-0.268 0.279,-0.814 0.875,-1.338 L 9.456,45.319 1.227,37.081 V 11.549 l 9.562,-9.186 h 26.074 l 9.562,9.201 z M 47.652,11.042 37.359,1.136 H 10.293 L 0,11.026 v 26.563 l 8.947,8.957 h 4.104 c -0.1,0.27 -0.231,0.688 0.053,1.095 0.31,0.449 0.846,0.449 1.047,0.449 0.245,0 0.578,-0.029 1.094,-0.096 0.001,10e-4 0.003,0.002 0.003,0.002 0,0 0.214,0.183 -0.44,0.394 -0.539,0.188 -1.007,0.496 -1.165,1.026 -0.011,0.038 -0.016,0.075 -0.022,0.112 H 0.005 L 0,63.105 10.29,73.026 H 37.359 L 47.652,63.121 V 37.676 L 38.703,28.73 h -7.59 c -0.004,-0.002 -0.008,-0.003 -0.01,-0.006 -0.335,-0.197 -0.679,-0.399 -0.994,-0.605 L 29.996,28.047 29.973,28.04 C 29.807,27.937 29.627,27.806 29.43,27.642 29.261,27.507 29.12,27.378 29.016,27.259 L 28.987,27.23 c -0.202,-0.206 -0.373,-0.403 -0.51,-0.576 1.186,0.338 2.473,0.42 3.091,0.441 h 0.077 c 0.04,0 0.08,0.001 0.117,0.002 l 0.055,0.005 c 0.147,0.011 0.262,0.037 0.337,0.058 0.079,0.032 0.151,0.066 0.214,0.095 l 0.322,0.118 c 0.076,0.017 0.155,0.025 0.236,0.025 0.467,0 0.899,-0.278 1.099,-0.706 0.069,-0.148 0.166,-0.443 0.09,-0.828 l 13.537,0.007 z"
     transform="scale(4.16667)" /></svg>